<svg xmlns="http://www.w3.org/2000/svg" viewBox="0 0 74.83 37.42">
  <defs>
    <style>
      .cls-1 {
        fill: #231f20;
      }

      .cls-1, .cls-2 {
        fill-rule: evenodd;
      }

      .cls-2 {
        fill: #f47937;
      }
    </style>
  </defs>
  <title>ali</title>
  <g id="Layer_2" data-name="Layer 2">
    <g id="Layer_1-2" data-name="Layer 1">
      <path class="cls-1" d="M8.38,33a2.84,2.84,0,0,1-1.13-.56c-3.24-3.17.92-6.84,5.64-8.95v-6c1.13.63,1.69.7,1.76.85l3.66-3.66-1.2-3.1C27.76,7.82,32.06,6.41,40.73,4.93L39.18,3.45,41.78,2c5.78,2,11.28,2.47,10.29,7.4.28-3.31-3.8-4.58-10.15-6.41l-1.2.78,2.33,1.9a138.46,138.46,0,0,0-24.38,6.55l1.06,2.68-3.81,3.81a16.14,16.14,0,0,0,14.16-2.47.15.15,0,0,0,.14-.14,6.3,6.3,0,0,0-1.2-1.2,3.33,3.33,0,0,1,3,3.81h-.92A2.3,2.3,0,0,0,30.86,17,18,18,0,0,1,14,19.66v4.65C11.48,25.23,6.83,28,6.9,30.8A2.54,2.54,0,0,0,8.38,33Z"/>
      <path class="cls-2" d="M30.09,31.78c-5.78,3-11.27,5.28-19.73,5.64-11-.21-12.75-7.61-7.54-15.36C7.75,14.24,15.57,7.26,28,2.82A46.6,46.6,0,0,1,42.07,0c7.4-.07,14.52,2.26,14.09,9.37C55.88,14.8,48.06,22.48,44,28c-1.76,2.4-2,3.95.92,3.81,10.92-.7,20.79-4.51,29.95-8.46-6.2,4.23-38.27,20.3-38.41,9.3a9.48,9.48,0,0,1,1.69-4.37,46.08,46.08,0,0,1,3.95-4.86c2.18-2.54,7.61-8.53,9.37-12.19,3.1-6.83-3.81-7.19-9.65-9.3L39.18,3.45l1.55,1.48c-8.67,1.48-13,2.89-23.61,6.62l1.2,3.1-3.66,3.66c-.07-.14-.63-.21-1.76-.85v6C8.17,25.58,4,29.25,7.25,32.42A2.84,2.84,0,0,0,8.38,33h0c5.85,3.31,21.7-1.2,21.7-1.2Z"/>
    </g>
  </g>
</svg>
